<?xml version="1.0" encoding="utf-8" standalone="no"?>
<!DOCTYPE svg PUBLIC "-//W3C//DTD SVG 1.1//EN"
  "http://www.w3.org/Graphics/SVG/1.1/DTD/svg11.dtd">
<svg xmlns:xlink="http://www.w3.org/1999/xlink" width="394.423125pt" height="297.190125pt" viewBox="0 0 394.423125 297.190125" xmlns="http://www.w3.org/2000/svg" version="1.1">
 <metadata>
  <rdf:RDF xmlns:dc="http://purl.org/dc/elements/1.1/" xmlns:cc="http://creativecommons.org/ns#" xmlns:rdf="http://www.w3.org/1999/02/22-rdf-syntax-ns#">
   <cc:Work>
    <dc:type rdf:resource="http://purl.org/dc/dcmitype/StillImage"/>
    <dc:date>2025-04-19T06:41:34.257069</dc:date>
    <dc:format>image/svg+xml</dc:format>
    <dc:creator>
     <cc:Agent>
      <dc:title>Matplotlib v3.10.0, https://matplotlib.org/</dc:title>
     </cc:Agent>
    </dc:creator>
   </cc:Work>
  </rdf:RDF>
 </metadata>
 <defs>
  <style type="text/css">*{stroke-linejoin: round; stroke-linecap: butt}</style>
 </defs>
 <g id="figure_1">
  <g id="patch_1">
   <path d="M 0 297.190125 
L 394.423125 297.190125 
L 394.423125 0 
L 0 0 
z
" style="fill: #ffffff"/>
  </g>
  <g id="axes_1">
   <g id="patch_2">
    <path d="M 30.103125 273.312 
L 387.223125 273.312 
L 387.223125 7.2 
L 30.103125 7.2 
z
" style="fill: #ffffff"/>
   </g>
   <g id="patch_3">
    <path d="M 46.335852 273.312 
L 50.607623 273.312 
L 50.607623 19.872 
L 46.335852 19.872 
z
" clip-path="url(#p594cb63363)" style="fill: #87ceeb"/>
   </g>
   <g id="patch_4">
    <path d="M 51.675565 273.312 
L 55.947336 273.312 
L 55.947336 22.071034 
L 51.675565 22.071034 
z
" clip-path="url(#p594cb63363)" style="fill: #87ceeb"/>
   </g>
   <g id="patch_5">
    <path d="M 57.015278 273.312 
L 61.287048 273.312 
L 61.287048 28.067396 
L 57.015278 28.067396 
z
" clip-path="url(#p594cb63363)" style="fill: #87ceeb"/>
   </g>
   <g id="patch_6">
    <path d="M 62.354991 273.312 
L 66.626761 273.312 
L 66.626761 34.47711 
L 62.354991 34.47711 
z
" clip-path="url(#p594cb63363)" style="fill: #87ceeb"/>
   </g>
   <g id="patch_7">
    <path d="M 67.694704 273.312 
L 71.966474 273.312 
L 71.966474 41.856825 
L 67.694704 41.856825 
z
" clip-path="url(#p594cb63363)" style="fill: #87ceeb"/>
   </g>
   <g id="patch_8">
    <path d="M 73.034417 273.312 
L 77.306187 273.312 
L 77.306187 48.619266 
L 73.034417 48.619266 
z
" clip-path="url(#p594cb63363)" style="fill: #87ceeb"/>
   </g>
   <g id="patch_9">
    <path d="M 78.37413 273.312 
L 82.6459 273.312 
L 82.6459 56.550117 
L 78.37413 56.550117 
z
" clip-path="url(#p594cb63363)" style="fill: #87ceeb"/>
   </g>
   <g id="patch_10">
    <path d="M 83.713843 273.312 
L 87.985613 273.312 
L 87.985613 64.580172 
L 83.713843 64.580172 
z
" clip-path="url(#p594cb63363)" style="fill: #87ceeb"/>
   </g>
   <g id="patch_11">
    <path d="M 89.053556 273.312 
L 93.325326 273.312 
L 93.325326 73.018068 
L 89.053556 73.018068 
z
" clip-path="url(#p594cb63363)" style="fill: #87ceeb"/>
   </g>
   <g id="patch_12">
    <path d="M 94.393269 273.312 
L 98.665039 273.312 
L 98.665039 80.849714 
L 94.393269 80.849714 
z
" clip-path="url(#p594cb63363)" style="fill: #87ceeb"/>
   </g>
   <g id="patch_13">
    <path d="M 99.732981 273.312 
L 104.004752 273.312 
L 104.004752 88.014485 
L 99.732981 88.014485 
z
" clip-path="url(#p594cb63363)" style="fill: #87ceeb"/>
   </g>
   <g id="patch_14">
    <path d="M 105.072694 273.312 
L 109.344465 273.312 
L 109.344465 95.43829 
L 105.072694 95.43829 
z
" clip-path="url(#p594cb63363)" style="fill: #87ceeb"/>
   </g>
   <g id="patch_15">
    <path d="M 110.412407 273.312 
L 114.684178 273.312 
L 114.684178 102.911697 
L 110.412407 102.911697 
z
" clip-path="url(#p594cb63363)" style="fill: #87ceeb"/>
   </g>
   <g id="patch_16">
    <path d="M 115.75212 273.312 
L 120.023891 273.312 
L 120.023891 110.280389 
L 115.75212 110.280389 
z
" clip-path="url(#p594cb63363)" style="fill: #87ceeb"/>
   </g>
   <g id="patch_17">
    <path d="M 121.091833 273.312 
L 125.363603 273.312 
L 125.363603 116.739706 
L 121.091833 116.739706 
z
" clip-path="url(#p594cb63363)" style="fill: #87ceeb"/>
   </g>
   <g id="patch_18">
    <path d="M 126.431546 273.312 
L 130.703316 273.312 
L 130.703316 122.978568 
L 126.431546 122.978568 
z
" clip-path="url(#p594cb63363)" style="fill: #ff0000"/>
   </g>
   <g id="patch_19">
    <path d="M 131.771259 273.312 
L 136.043029 273.312 
L 136.043029 129.123737 
L 131.771259 129.123737 
z
" clip-path="url(#p594cb63363)" style="fill: #87ceeb"/>
   </g>
   <g id="patch_20">
    <path d="M 137.110972 273.312 
L 141.382742 273.312 
L 141.382742 135.268906 
L 137.110972 135.268906 
z
" clip-path="url(#p594cb63363)" style="fill: #87ceeb"/>
   </g>
   <g id="patch_21">
    <path d="M 142.450685 273.312 
L 146.722455 273.312 
L 146.722455 141.397541 
L 142.450685 141.397541 
z
" clip-path="url(#p594cb63363)" style="fill: #87ceeb"/>
   </g>
   <g id="patch_22">
    <path d="M 147.790398 273.312 
L 152.062168 273.312 
L 152.062168 147.052199 
L 147.790398 147.052199 
z
" clip-path="url(#p594cb63363)" style="fill: #87ceeb"/>
   </g>
   <g id="patch_23">
    <path d="M 153.130111 273.312 
L 157.401881 273.312 
L 157.401881 152.453334 
L 153.130111 152.453334 
z
" clip-path="url(#p594cb63363)" style="fill: #87ceeb"/>
   </g>
   <g id="patch_24">
    <path d="M 158.469824 273.312 
L 162.741594 273.312 
L 162.741594 157.992253 
L 158.469824 157.992253 
z
" clip-path="url(#p594cb63363)" style="fill: #87ceeb"/>
   </g>
   <g id="patch_25">
    <path d="M 163.809536 273.312 
L 168.081307 273.312 
L 168.081307 162.787138 
L 163.809536 162.787138 
z
" clip-path="url(#p594cb63363)" style="fill: #87ceeb"/>
   </g>
   <g id="patch_26">
    <path d="M 169.149249 273.312 
L 173.42102 273.312 
L 173.42102 167.598558 
L 169.149249 167.598558 
z
" clip-path="url(#p594cb63363)" style="fill: #87ceeb"/>
   </g>
   <g id="patch_27">
    <path d="M 174.488962 273.312 
L 178.760733 273.312 
L 178.760733 172.476114 
L 174.488962 172.476114 
z
" clip-path="url(#p594cb63363)" style="fill: #87ceeb"/>
   </g>
   <g id="patch_28">
    <path d="M 179.828675 273.312 
L 184.100446 273.312 
L 184.100446 177.304067 
L 179.828675 177.304067 
z
" clip-path="url(#p594cb63363)" style="fill: #87ceeb"/>
   </g>
   <g id="patch_29">
    <path d="M 185.168388 273.312 
L 189.440158 273.312 
L 189.440158 181.895032 
L 185.168388 181.895032 
z
" clip-path="url(#p594cb63363)" style="fill: #87ceeb"/>
   </g>
   <g id="patch_30">
    <path d="M 190.508101 273.312 
L 194.779871 273.312 
L 194.779871 185.846679 
L 190.508101 185.846679 
z
" clip-path="url(#p594cb63363)" style="fill: #87ceeb"/>
   </g>
   <g id="patch_31">
    <path d="M 195.847814 273.312 
L 200.119584 273.312 
L 200.119584 190.01878 
L 195.847814 190.01878 
z
" clip-path="url(#p594cb63363)" style="fill: #87ceeb"/>
   </g>
   <g id="patch_32">
    <path d="M 201.187527 273.312 
L 205.459297 273.312 
L 205.459297 194.190881 
L 201.187527 194.190881 
z
" clip-path="url(#p594cb63363)" style="fill: #87ceeb"/>
   </g>
   <g id="patch_33">
    <path d="M 206.52724 273.312 
L 210.79901 273.312 
L 210.79901 198.131505 
L 206.52724 198.131505 
z
" clip-path="url(#p594cb63363)" style="fill: #87ceeb"/>
   </g>
   <g id="patch_34">
    <path d="M 211.866953 273.312 
L 216.138723 273.312 
L 216.138723 202.132755 
L 211.866953 202.132755 
z
" clip-path="url(#p594cb63363)" style="fill: #87ceeb"/>
   </g>
   <g id="patch_35">
    <path d="M 217.206666 273.312 
L 221.478436 273.312 
L 221.478436 205.726163 
L 217.206666 205.726163 
z
" clip-path="url(#p594cb63363)" style="fill: #87ceeb"/>
   </g>
   <g id="patch_36">
    <path d="M 222.546379 273.312 
L 226.818149 273.312 
L 226.818149 209.258946 
L 222.546379 209.258946 
z
" clip-path="url(#p594cb63363)" style="fill: #87ceeb"/>
   </g>
   <g id="patch_37">
    <path d="M 227.886092 273.312 
L 232.157862 273.312 
L 232.157862 212.477582 
L 227.886092 212.477582 
z
" clip-path="url(#p594cb63363)" style="fill: #87ceeb"/>
   </g>
   <g id="patch_38">
    <path d="M 233.225804 273.312 
L 237.497575 273.312 
L 237.497575 215.856047 
L 233.225804 215.856047 
z
" clip-path="url(#p594cb63363)" style="fill: #87ceeb"/>
   </g>
   <g id="patch_39">
    <path d="M 238.565517 273.312 
L 242.837288 273.312 
L 242.837288 219.190421 
L 238.565517 219.190421 
z
" clip-path="url(#p594cb63363)" style="fill: #87ceeb"/>
   </g>
   <g id="patch_40">
    <path d="M 243.90523 273.312 
L 248.177001 273.312 
L 248.177001 222.447636 
L 243.90523 222.447636 
z
" clip-path="url(#p594cb63363)" style="fill: #87ceeb"/>
   </g>
   <g id="patch_41">
    <path d="M 249.244943 273.312 
L 253.516714 273.312 
L 253.516714 225.655249 
L 249.244943 225.655249 
z
" clip-path="url(#p594cb63363)" style="fill: #87ceeb"/>
   </g>
   <g id="patch_42">
    <path d="M 254.584656 273.312 
L 258.856426 273.312 
L 258.856426 228.780192 
L 254.584656 228.780192 
z
" clip-path="url(#p594cb63363)" style="fill: #87ceeb"/>
   </g>
   <g id="patch_43">
    <path d="M 259.924369 273.312 
L 264.196139 273.312 
L 264.196139 232.109055 
L 259.924369 232.109055 
z
" clip-path="url(#p594cb63363)" style="fill: #87ceeb"/>
   </g>
   <g id="patch_44">
    <path d="M 265.264082 273.312 
L 269.535852 273.312 
L 269.535852 235.228486 
L 265.264082 235.228486 
z
" clip-path="url(#p594cb63363)" style="fill: #87ceeb"/>
   </g>
   <g id="patch_45">
    <path d="M 270.603795 273.312 
L 274.875565 273.312 
L 274.875565 238.033769 
L 270.603795 238.033769 
z
" clip-path="url(#p594cb63363)" style="fill: #87ceeb"/>
   </g>
   <g id="patch_46">
    <path d="M 275.943508 273.312 
L 280.215278 273.312 
L 280.215278 240.651666 
L 275.943508 240.651666 
z
" clip-path="url(#p594cb63363)" style="fill: #87ceeb"/>
   </g>
   <g id="patch_47">
    <path d="M 281.283221 273.312 
L 285.554991 273.312 
L 285.554991 243.186893 
L 281.283221 243.186893 
z
" clip-path="url(#p594cb63363)" style="fill: #87ceeb"/>
   </g>
   <g id="patch_48">
    <path d="M 286.622934 273.312 
L 290.894704 273.312 
L 290.894704 245.60087 
L 286.622934 245.60087 
z
" clip-path="url(#p594cb63363)" style="fill: #87ceeb"/>
   </g>
   <g id="patch_49">
    <path d="M 291.962647 273.312 
L 296.234417 273.312 
L 296.234417 247.882574 
L 291.962647 247.882574 
z
" clip-path="url(#p594cb63363)" style="fill: #87ceeb"/>
   </g>
   <g id="patch_50">
    <path d="M 297.302359 273.312 
L 301.57413 273.312 
L 301.57413 249.993426 
L 297.302359 249.993426 
z
" clip-path="url(#p594cb63363)" style="fill: #87ceeb"/>
   </g>
   <g id="patch_51">
    <path d="M 302.642072 273.312 
L 306.913843 273.312 
L 306.913843 252.170414 
L 302.642072 252.170414 
z
" clip-path="url(#p594cb63363)" style="fill: #87ceeb"/>
   </g>
   <g id="patch_52">
    <path d="M 307.981785 273.312 
L 312.253556 273.312 
L 312.253556 254.452118 
L 307.981785 254.452118 
z
" clip-path="url(#p594cb63363)" style="fill: #87ceeb"/>
   </g>
   <g id="patch_53">
    <path d="M 313.321498 273.312 
L 317.593269 273.312 
L 317.593269 256.386606 
L 313.321498 256.386606 
z
" clip-path="url(#p594cb63363)" style="fill: #87ceeb"/>
   </g>
   <g id="patch_54">
    <path d="M 318.661211 273.312 
L 322.932981 273.312 
L 322.932981 258.238424 
L 318.661211 258.238424 
z
" clip-path="url(#p594cb63363)" style="fill: #87ceeb"/>
   </g>
   <g id="patch_55">
    <path d="M 324.000924 273.312 
L 328.272694 273.312 
L 328.272694 260.117798 
L 324.000924 260.117798 
z
" clip-path="url(#p594cb63363)" style="fill: #87ceeb"/>
   </g>
   <g id="patch_56">
    <path d="M 329.340637 273.312 
L 333.612407 273.312 
L 333.612407 261.925525 
L 329.340637 261.925525 
z
" clip-path="url(#p594cb63363)" style="fill: #87ceeb"/>
   </g>
   <g id="patch_57">
    <path d="M 334.68035 273.312 
L 338.95212 273.312 
L 338.95212 263.52382 
L 334.68035 263.52382 
z
" clip-path="url(#p594cb63363)" style="fill: #87ceeb"/>
   </g>
   <g id="patch_58">
    <path d="M 340.020063 273.312 
L 344.291833 273.312 
L 344.291833 264.956775 
L 340.020063 264.956775 
z
" clip-path="url(#p594cb63363)" style="fill: #87ceeb"/>
   </g>
   <g id="patch_59">
    <path d="M 345.359776 273.312 
L 349.631546 273.312 
L 349.631546 266.604672 
L 345.359776 266.604672 
z
" clip-path="url(#p594cb63363)" style="fill: #87ceeb"/>
   </g>
   <g id="patch_60">
    <path d="M 350.699489 273.312 
L 354.971259 273.312 
L 354.971259 268.153365 
L 350.699489 268.153365 
z
" clip-path="url(#p594cb63363)" style="fill: #87ceeb"/>
   </g>
   <g id="patch_61">
    <path d="M 356.039202 273.312 
L 360.310972 273.312 
L 360.310972 269.465069 
L 356.039202 269.465069 
z
" clip-path="url(#p594cb63363)" style="fill: #87ceeb"/>
   </g>
   <g id="patch_62">
    <path d="M 361.378914 273.312 
L 365.650685 273.312 
L 365.650685 270.798819 
L 361.378914 270.798819 
z
" clip-path="url(#p594cb63363)" style="fill: #87ceeb"/>
   </g>
   <g id="patch_63">
    <path d="M 366.718627 273.312 
L 370.990398 273.312 
L 370.990398 272.088478 
L 366.718627 272.088478 
z
" clip-path="url(#p594cb63363)" style="fill: #87ceeb"/>
   </g>
   <g id="matplotlib.axis_1">
    <g id="xtick_1">
     <g id="line2d_1">
      <defs>
       <path id="m6e985cf2f6" d="M 0 0 
L 0 3.5 
" style="stroke: #000000; stroke-width: 0.8"/>
      </defs>
      <g>
       <use xlink:href="#m6e985cf2f6" x="48.471737" y="273.312" style="stroke: #000000; stroke-width: 0.8"/>
      </g>
     </g>
     <g id="text_1">
      <!-- 0 -->
      <g transform="translate(45.290487 287.910437) scale(0.1 -0.1)">
       <defs>
        <path id="DejaVuSans-30" d="M 2034 4250 
Q 1547 4250 1301 3770 
Q 1056 3291 1056 2328 
Q 1056 1369 1301 889 
Q 1547 409 2034 409 
Q 2525 409 2770 889 
Q 3016 1369 3016 2328 
Q 3016 3291 2770 3770 
Q 2525 4250 2034 4250 
z
M 2034 4750 
Q 2819 4750 3233 4129 
Q 3647 3509 3647 2328 
Q 3647 1150 3233 529 
Q 2819 -91 2034 -91 
Q 1250 -91 836 529 
Q 422 1150 422 2328 
Q 422 3509 836 4129 
Q 1250 4750 2034 4750 
z
" transform="scale(0.015625)"/>
       </defs>
       <use xlink:href="#DejaVuSans-30"/>
      </g>
     </g>
    </g>
    <g id="xtick_2">
     <g id="line2d_2">
      <g>
       <use xlink:href="#m6e985cf2f6" x="101.868867" y="273.312" style="stroke: #000000; stroke-width: 0.8"/>
      </g>
     </g>
     <g id="text_2">
      <!-- 10 -->
      <g transform="translate(95.506367 287.910437) scale(0.1 -0.1)">
       <defs>
        <path id="DejaVuSans-31" d="M 794 531 
L 1825 531 
L 1825 4091 
L 703 3866 
L 703 4441 
L 1819 4666 
L 2450 4666 
L 2450 531 
L 3481 531 
L 3481 0 
L 794 0 
L 794 531 
z
" transform="scale(0.015625)"/>
       </defs>
       <use xlink:href="#DejaVuSans-31"/>
       <use xlink:href="#DejaVuSans-30" transform="translate(63.623047 0)"/>
      </g>
     </g>
    </g>
    <g id="xtick_3">
     <g id="line2d_3">
      <g>
       <use xlink:href="#m6e985cf2f6" x="155.265996" y="273.312" style="stroke: #000000; stroke-width: 0.8"/>
      </g>
     </g>
     <g id="text_3">
      <!-- 20 -->
      <g transform="translate(148.903496 287.910437) scale(0.1 -0.1)">
       <defs>
        <path id="DejaVuSans-32" d="M 1228 531 
L 3431 531 
L 3431 0 
L 469 0 
L 469 531 
Q 828 903 1448 1529 
Q 2069 2156 2228 2338 
Q 2531 2678 2651 2914 
Q 2772 3150 2772 3378 
Q 2772 3750 2511 3984 
Q 2250 4219 1831 4219 
Q 1534 4219 1204 4116 
Q 875 4013 500 3803 
L 500 4441 
Q 881 4594 1212 4672 
Q 1544 4750 1819 4750 
Q 2544 4750 2975 4387 
Q 3406 4025 3406 3419 
Q 3406 3131 3298 2873 
Q 3191 2616 2906 2266 
Q 2828 2175 2409 1742 
Q 1991 1309 1228 531 
z
" transform="scale(0.015625)"/>
       </defs>
       <use xlink:href="#DejaVuSans-32"/>
       <use xlink:href="#DejaVuSans-30" transform="translate(63.623047 0)"/>
      </g>
     </g>
    </g>
    <g id="xtick_4">
     <g id="line2d_4">
      <g>
       <use xlink:href="#m6e985cf2f6" x="208.663125" y="273.312" style="stroke: #000000; stroke-width: 0.8"/>
      </g>
     </g>
     <g id="text_4">
      <!-- 30 -->
      <g transform="translate(202.300625 287.910437) scale(0.1 -0.1)">
       <defs>
        <path id="DejaVuSans-33" d="M 2597 2516 
Q 3050 2419 3304 2112 
Q 3559 1806 3559 1356 
Q 3559 666 3084 287 
Q 2609 -91 1734 -91 
Q 1441 -91 1130 -33 
Q 819 25 488 141 
L 488 750 
Q 750 597 1062 519 
Q 1375 441 1716 441 
Q 2309 441 2620 675 
Q 2931 909 2931 1356 
Q 2931 1769 2642 2001 
Q 2353 2234 1838 2234 
L 1294 2234 
L 1294 2753 
L 1863 2753 
Q 2328 2753 2575 2939 
Q 2822 3125 2822 3475 
Q 2822 3834 2567 4026 
Q 2313 4219 1838 4219 
Q 1578 4219 1281 4162 
Q 984 4106 628 3988 
L 628 4550 
Q 988 4650 1302 4700 
Q 1616 4750 1894 4750 
Q 2613 4750 3031 4423 
Q 3450 4097 3450 3541 
Q 3450 3153 3228 2886 
Q 3006 2619 2597 2516 
z
" transform="scale(0.015625)"/>
       </defs>
       <use xlink:href="#DejaVuSans-33"/>
       <use xlink:href="#DejaVuSans-30" transform="translate(63.623047 0)"/>
      </g>
     </g>
    </g>
    <g id="xtick_5">
     <g id="line2d_5">
      <g>
       <use xlink:href="#m6e985cf2f6" x="262.060254" y="273.312" style="stroke: #000000; stroke-width: 0.8"/>
      </g>
     </g>
     <g id="text_5">
      <!-- 40 -->
      <g transform="translate(255.697754 287.910437) scale(0.1 -0.1)">
       <defs>
        <path id="DejaVuSans-34" d="M 2419 4116 
L 825 1625 
L 2419 1625 
L 2419 4116 
z
M 2253 4666 
L 3047 4666 
L 3047 1625 
L 3713 1625 
L 3713 1100 
L 3047 1100 
L 3047 0 
L 2419 0 
L 2419 1100 
L 313 1100 
L 313 1709 
L 2253 4666 
z
" transform="scale(0.015625)"/>
       </defs>
       <use xlink:href="#DejaVuSans-34"/>
       <use xlink:href="#DejaVuSans-30" transform="translate(63.623047 0)"/>
      </g>
     </g>
    </g>
    <g id="xtick_6">
     <g id="line2d_6">
      <g>
       <use xlink:href="#m6e985cf2f6" x="315.457383" y="273.312" style="stroke: #000000; stroke-width: 0.8"/>
      </g>
     </g>
     <g id="text_6">
      <!-- 50 -->
      <g transform="translate(309.094883 287.910437) scale(0.1 -0.1)">
       <defs>
        <path id="DejaVuSans-35" d="M 691 4666 
L 3169 4666 
L 3169 4134 
L 1269 4134 
L 1269 2991 
Q 1406 3038 1543 3061 
Q 1681 3084 1819 3084 
Q 2600 3084 3056 2656 
Q 3513 2228 3513 1497 
Q 3513 744 3044 326 
Q 2575 -91 1722 -91 
Q 1428 -91 1123 -41 
Q 819 9 494 109 
L 494 744 
Q 775 591 1075 516 
Q 1375 441 1709 441 
Q 2250 441 2565 725 
Q 2881 1009 2881 1497 
Q 2881 1984 2565 2268 
Q 2250 2553 1709 2553 
Q 1456 2553 1204 2497 
Q 953 2441 691 2322 
L 691 4666 
z
" transform="scale(0.015625)"/>
       </defs>
       <use xlink:href="#DejaVuSans-35"/>
       <use xlink:href="#DejaVuSans-30" transform="translate(63.623047 0)"/>
      </g>
     </g>
    </g>
    <g id="xtick_7">
     <g id="line2d_7">
      <g>
       <use xlink:href="#m6e985cf2f6" x="368.854513" y="273.312" style="stroke: #000000; stroke-width: 0.8"/>
      </g>
     </g>
     <g id="text_7">
      <!-- 60 -->
      <g transform="translate(362.492013 287.910437) scale(0.1 -0.1)">
       <defs>
        <path id="DejaVuSans-36" d="M 2113 2584 
Q 1688 2584 1439 2293 
Q 1191 2003 1191 1497 
Q 1191 994 1439 701 
Q 1688 409 2113 409 
Q 2538 409 2786 701 
Q 3034 994 3034 1497 
Q 3034 2003 2786 2293 
Q 2538 2584 2113 2584 
z
M 3366 4563 
L 3366 3988 
Q 3128 4100 2886 4159 
Q 2644 4219 2406 4219 
Q 1781 4219 1451 3797 
Q 1122 3375 1075 2522 
Q 1259 2794 1537 2939 
Q 1816 3084 2150 3084 
Q 2853 3084 3261 2657 
Q 3669 2231 3669 1497 
Q 3669 778 3244 343 
Q 2819 -91 2113 -91 
Q 1303 -91 875 529 
Q 447 1150 447 2328 
Q 447 3434 972 4092 
Q 1497 4750 2381 4750 
Q 2619 4750 2861 4703 
Q 3103 4656 3366 4563 
z
" transform="scale(0.015625)"/>
       </defs>
       <use xlink:href="#DejaVuSans-36"/>
       <use xlink:href="#DejaVuSans-30" transform="translate(63.623047 0)"/>
      </g>
     </g>
    </g>
   </g>
   <g id="matplotlib.axis_2">
    <g id="ytick_1">
     <g id="line2d_8">
      <defs>
       <path id="mcaf1a77a79" d="M 0 0 
L -3.5 0 
" style="stroke: #000000; stroke-width: 0.8"/>
      </defs>
      <g>
       <use xlink:href="#mcaf1a77a79" x="30.103125" y="273.312" style="stroke: #000000; stroke-width: 0.8"/>
      </g>
     </g>
     <g id="text_8">
      <!-- 0.0 -->
      <g transform="translate(7.2 277.111219) scale(0.1 -0.1)">
       <defs>
        <path id="DejaVuSans-2e" d="M 684 794 
L 1344 794 
L 1344 0 
L 684 0 
L 684 794 
z
" transform="scale(0.015625)"/>
       </defs>
       <use xlink:href="#DejaVuSans-30"/>
       <use xlink:href="#DejaVuSans-2e" transform="translate(63.623047 0)"/>
       <use xlink:href="#DejaVuSans-30" transform="translate(95.410156 0)"/>
      </g>
     </g>
    </g>
    <g id="ytick_2">
     <g id="line2d_9">
      <g>
       <use xlink:href="#mcaf1a77a79" x="30.103125" y="222.624" style="stroke: #000000; stroke-width: 0.8"/>
      </g>
     </g>
     <g id="text_9">
      <!-- 0.2 -->
      <g transform="translate(7.2 226.423219) scale(0.1 -0.1)">
       <use xlink:href="#DejaVuSans-30"/>
       <use xlink:href="#DejaVuSans-2e" transform="translate(63.623047 0)"/>
       <use xlink:href="#DejaVuSans-32" transform="translate(95.410156 0)"/>
      </g>
     </g>
    </g>
    <g id="ytick_3">
     <g id="line2d_10">
      <g>
       <use xlink:href="#mcaf1a77a79" x="30.103125" y="171.936" style="stroke: #000000; stroke-width: 0.8"/>
      </g>
     </g>
     <g id="text_10">
      <!-- 0.4 -->
      <g transform="translate(7.2 175.735219) scale(0.1 -0.1)">
       <use xlink:href="#DejaVuSans-30"/>
       <use xlink:href="#DejaVuSans-2e" transform="translate(63.623047 0)"/>
       <use xlink:href="#DejaVuSans-34" transform="translate(95.410156 0)"/>
      </g>
     </g>
    </g>
    <g id="ytick_4">
     <g id="line2d_11">
      <g>
       <use xlink:href="#mcaf1a77a79" x="30.103125" y="121.248" style="stroke: #000000; stroke-width: 0.8"/>
      </g>
     </g>
     <g id="text_11">
      <!-- 0.6 -->
      <g transform="translate(7.2 125.047219) scale(0.1 -0.1)">
       <use xlink:href="#DejaVuSans-30"/>
       <use xlink:href="#DejaVuSans-2e" transform="translate(63.623047 0)"/>
       <use xlink:href="#DejaVuSans-36" transform="translate(95.410156 0)"/>
      </g>
     </g>
    </g>
    <g id="ytick_5">
     <g id="line2d_12">
      <g>
       <use xlink:href="#mcaf1a77a79" x="30.103125" y="70.56" style="stroke: #000000; stroke-width: 0.8"/>
      </g>
     </g>
     <g id="text_12">
      <!-- 0.8 -->
      <g transform="translate(7.2 74.359219) scale(0.1 -0.1)">
       <defs>
        <path id="DejaVuSans-38" d="M 2034 2216 
Q 1584 2216 1326 1975 
Q 1069 1734 1069 1313 
Q 1069 891 1326 650 
Q 1584 409 2034 409 
Q 2484 409 2743 651 
Q 3003 894 3003 1313 
Q 3003 1734 2745 1975 
Q 2488 2216 2034 2216 
z
M 1403 2484 
Q 997 2584 770 2862 
Q 544 3141 544 3541 
Q 544 4100 942 4425 
Q 1341 4750 2034 4750 
Q 2731 4750 3128 4425 
Q 3525 4100 3525 3541 
Q 3525 3141 3298 2862 
Q 3072 2584 2669 2484 
Q 3125 2378 3379 2068 
Q 3634 1759 3634 1313 
Q 3634 634 3220 271 
Q 2806 -91 2034 -91 
Q 1263 -91 848 271 
Q 434 634 434 1313 
Q 434 1759 690 2068 
Q 947 2378 1403 2484 
z
M 1172 3481 
Q 1172 3119 1398 2916 
Q 1625 2713 2034 2713 
Q 2441 2713 2670 2916 
Q 2900 3119 2900 3481 
Q 2900 3844 2670 4047 
Q 2441 4250 2034 4250 
Q 1625 4250 1398 4047 
Q 1172 3844 1172 3481 
z
" transform="scale(0.015625)"/>
       </defs>
       <use xlink:href="#DejaVuSans-30"/>
       <use xlink:href="#DejaVuSans-2e" transform="translate(63.623047 0)"/>
       <use xlink:href="#DejaVuSans-38" transform="translate(95.410156 0)"/>
      </g>
     </g>
    </g>
    <g id="ytick_6">
     <g id="line2d_13">
      <g>
       <use xlink:href="#mcaf1a77a79" x="30.103125" y="19.872" style="stroke: #000000; stroke-width: 0.8"/>
      </g>
     </g>
     <g id="text_13">
      <!-- 1.0 -->
      <g transform="translate(7.2 23.671219) scale(0.1 -0.1)">
       <use xlink:href="#DejaVuSans-31"/>
       <use xlink:href="#DejaVuSans-2e" transform="translate(63.623047 0)"/>
       <use xlink:href="#DejaVuSans-30" transform="translate(95.410156 0)"/>
      </g>
     </g>
    </g>
   </g>
   <g id="line2d_14">
    <path d="M 128.567431 273.312 
L 128.567431 95.605491 
" clip-path="url(#p594cb63363)" style="fill: none; stroke-dasharray: 3.7,1.6; stroke-dashoffset: 0; stroke: #ff0000"/>
   </g>
   <g id="patch_64">
    <path d="M 30.103125 273.312 
L 30.103125 7.2 
" style="fill: none; stroke: #000000; stroke-width: 0.8; stroke-linejoin: miter; stroke-linecap: square"/>
   </g>
   <g id="patch_65">
    <path d="M 387.223125 273.312 
L 387.223125 7.2 
" style="fill: none; stroke: #000000; stroke-width: 0.8; stroke-linejoin: miter; stroke-linecap: square"/>
   </g>
   <g id="patch_66">
    <path d="M 30.103125 273.312 
L 387.223125 273.312 
" style="fill: none; stroke: #000000; stroke-width: 0.8; stroke-linejoin: miter; stroke-linecap: square"/>
   </g>
   <g id="patch_67">
    <path d="M 30.103125 7.2 
L 387.223125 7.2 
" style="fill: none; stroke: #000000; stroke-width: 0.8; stroke-linejoin: miter; stroke-linecap: square"/>
   </g>
   <g id="text_14">
    <!-- x=15 -->
    <g style="fill: #ff0000" transform="translate(115.055712 91.395706) scale(0.1 -0.1)">
     <defs>
      <path id="DejaVuSans-78" d="M 3513 3500 
L 2247 1797 
L 3578 0 
L 2900 0 
L 1881 1375 
L 863 0 
L 184 0 
L 1544 1831 
L 300 3500 
L 978 3500 
L 1906 2253 
L 2834 3500 
L 3513 3500 
z
" transform="scale(0.015625)"/>
      <path id="DejaVuSans-3d" d="M 678 2906 
L 4684 2906 
L 4684 2381 
L 678 2381 
L 678 2906 
z
M 678 1631 
L 4684 1631 
L 4684 1100 
L 678 1100 
L 678 1631 
z
" transform="scale(0.015625)"/>
     </defs>
     <use xlink:href="#DejaVuSans-78"/>
     <use xlink:href="#DejaVuSans-3d" transform="translate(59.179688 0)"/>
     <use xlink:href="#DejaVuSans-31" transform="translate(142.96875 0)"/>
     <use xlink:href="#DejaVuSans-35" transform="translate(206.591797 0)"/>
    </g>
   </g>
   <g id="text_15">
    <!-- 0.618 -->
    <g style="fill: #ff0000" transform="translate(114.253369 78.723706) scale(0.1 -0.1)">
     <use xlink:href="#DejaVuSans-30"/>
     <use xlink:href="#DejaVuSans-2e" transform="translate(63.623047 0)"/>
     <use xlink:href="#DejaVuSans-36" transform="translate(95.410156 0)"/>
     <use xlink:href="#DejaVuSans-31" transform="translate(159.033203 0)"/>
     <use xlink:href="#DejaVuSans-38" transform="translate(222.65625 0)"/>
    </g>
   </g>
  </g>
 </g>
 <defs>
  <clipPath id="p594cb63363">
   <rect x="30.103125" y="7.2" width="357.12" height="266.112"/>
  </clipPath>
 </defs>
</svg>
